<svg width="214" height="73" viewBox="0 0 214 73" fill="none" xmlns="http://www.w3.org/2000/svg">
<path d="M10 0.5H204C209.247 0.5 213.5 4.75329 213.5 10V63C213.5 68.2467 209.247 72.5 204 72.5H10C4.75329 72.5 0.5 68.2467 0.5 63V10C0.5 4.7533 4.7533 0.5 10 0.5Z" fill="white" stroke="black"/>
<path d="M93.5739 30.6364C93.446 29.5568 92.9276 28.7188 92.0185 28.1222C91.1094 27.5256 89.9943 27.2273 88.6733 27.2273C87.7074 27.2273 86.8622 27.3835 86.1378 27.696C85.4205 28.0085 84.8594 28.4382 84.4545 28.9851C84.0568 29.532 83.858 30.1534 83.858 30.8494C83.858 31.4318 83.9964 31.9325 84.2734 32.3516C84.5575 32.7635 84.9197 33.108 85.3601 33.3849C85.8004 33.6548 86.2621 33.8786 86.745 34.0561C87.228 34.2266 87.6719 34.3651 88.0767 34.4716L90.2926 35.0682C90.8608 35.2173 91.4929 35.4233 92.1889 35.6861C92.892 35.9489 93.5632 36.3075 94.2024 36.7621C94.8487 37.2095 95.3814 37.7848 95.8004 38.4879C96.2195 39.1911 96.429 40.054 96.429 41.0767C96.429 42.2557 96.12 43.321 95.5021 44.2727C94.8913 45.2244 93.9964 45.9808 92.8175 46.5419C91.6456 47.103 90.2216 47.3835 88.5455 47.3835C86.983 47.3835 85.63 47.1314 84.4865 46.6271C83.3501 46.1229 82.4553 45.4197 81.8018 44.5178C81.1555 43.6158 80.7898 42.5682 80.7045 41.375H83.4318C83.5028 42.1989 83.7798 42.8807 84.2628 43.4205C84.7528 43.9531 85.3707 44.3509 86.1165 44.6136C86.8693 44.8693 87.679 44.9972 88.5455 44.9972C89.554 44.9972 90.4595 44.8338 91.2621 44.5071C92.0646 44.1733 92.7003 43.7116 93.169 43.1222C93.6378 42.5256 93.8722 41.8295 93.8722 41.0341C93.8722 40.3097 93.6697 39.7202 93.2649 39.2656C92.8601 38.8111 92.3274 38.4418 91.6669 38.1577C91.0064 37.8736 90.2926 37.625 89.5256 37.4119L86.8409 36.6449C85.1364 36.1548 83.7869 35.4553 82.7926 34.5462C81.7983 33.6371 81.3011 32.4474 81.3011 30.9773C81.3011 29.7557 81.6314 28.6903 82.2919 27.7812C82.9595 26.8651 83.8544 26.1548 84.9766 25.6506C86.1058 25.1392 87.3665 24.8835 88.7585 24.8835C90.1648 24.8835 91.4148 25.1357 92.5085 25.6399C93.6023 26.1371 94.4688 26.8189 95.108 27.6854C95.7543 28.5518 96.0952 29.5355 96.1307 30.6364H93.5739ZM100.432 47V30.6364H102.946V47H100.432ZM101.71 27.9091C101.22 27.9091 100.798 27.7422 100.443 27.4084C100.095 27.0746 99.9206 26.6733 99.9206 26.2045C99.9206 25.7358 100.095 25.3345 100.443 25.0007C100.798 24.6669 101.22 24.5 101.71 24.5C102.2 24.5 102.619 24.6669 102.968 25.0007C103.323 25.3345 103.5 25.7358 103.5 26.2045C103.5 26.6733 103.323 27.0746 102.968 27.4084C102.619 27.7422 102.2 27.9091 101.71 27.9091ZM107.551 47V30.6364H109.98V33.1932H110.193C110.534 32.3196 111.085 31.6413 111.844 31.1584C112.604 30.6683 113.517 30.4233 114.582 30.4233C115.662 30.4233 116.56 30.6683 117.278 31.1584C118.002 31.6413 118.567 32.3196 118.972 33.1932H119.142C119.561 32.348 120.19 31.6768 121.028 31.1797C121.866 30.6754 122.871 30.4233 124.043 30.4233C125.506 30.4233 126.702 30.8814 127.633 31.7976C128.563 32.7067 129.028 34.1236 129.028 36.0483V47H126.514V36.0483C126.514 34.8409 126.184 33.978 125.523 33.4595C124.863 32.9411 124.085 32.6818 123.19 32.6818C122.04 32.6818 121.148 33.0298 120.516 33.7259C119.884 34.4148 119.568 35.2884 119.568 36.3466V47H117.011V35.7926C117.011 34.8622 116.71 34.1129 116.106 33.5447C115.502 32.9695 114.724 32.6818 113.773 32.6818C113.119 32.6818 112.509 32.8558 111.94 33.2038C111.379 33.5518 110.925 34.0348 110.577 34.6527C110.236 35.2635 110.065 35.9702 110.065 36.7727V47H107.551Z" fill="black"/>
</svg>
